# Blender v2.93.4 OBJ File: ''
# www.blender.org
mtllib untitled2.mtl
o Cube
v 1.735537 0.984762 -1.561511
v 1.930338 -1.232880 -1.524714
v 1.504946 0.825762 1.471119
v 1.478743 -1.179185 1.993151
v -1.658372 1.074584 -1.773837
v -1.375198 -0.803278 -1.964912
v -1.706176 0.948823 1.506716
v -1.367904 -1.014953 1.370194
v -1.099841 -0.682588 -0.068927
v 1.354720 0.553677 0.018588
v -0.982862 0.429973 0.021081
v 1.197587 -0.637673 -0.068473
v -0.963033 0.963033 -0.481516
v 0.963033 -0.963033 -0.481516
v -0.963033 -0.963033 -0.481516
v 0.963033 0.963033 -0.481516
v -0.963033 -0.963033 0.481516
v 0.963033 0.963033 0.481516
v -0.963033 0.963033 0.481516
v 0.963033 -0.963033 0.481516
v 0.080051 -0.634062 -1.147162
v 0.050989 0.490196 1.300326
v -0.043823 -0.707019 1.021217
v 0.004327 0.465466 -0.921979
v 0.104866 -3.170714 0.180437
v -0.007449 3.940495 -0.114448
v 0.000000 0.963033 -0.481516
v 0.000000 -0.963033 -0.481516
v 0.000000 -0.963033 0.481516
v 0.000000 0.963033 0.481516
v 0.481516 -0.963033 0.963033
v 0.481516 0.963033 -0.963033
v 0.481516 0.963033 0.000000
v 0.460257 0.820114 -0.606949
v 0.616220 0.840279 0.598119
v 0.481516 -0.963033 -0.963033
v 0.481516 0.963033 0.963033
v 0.481516 -0.963033 0.000000
v 0.520232 -1.435020 -0.653859
v 0.609433 -1.293739 0.597974
v -0.481516 -0.963033 -0.963033
v -0.481516 0.963033 0.963033
v -0.481516 -0.963033 0.000000
v -0.593741 -1.433488 -0.535738
v -0.506941 -1.329945 0.506852
v -0.481516 -0.963033 0.963033
v -0.481516 0.963033 -0.963033
v -0.481516 0.963033 0.000000
v -0.609471 0.862283 -0.500145
v -0.575690 0.858154 0.589188
v 0.606098 0.055910 -0.482407
v -0.769111 0.075706 0.797334
v 0.715106 0.060156 0.556364
v -0.774579 0.068261 -0.544342
v 3.783466 0.112162 -0.129806
v -3.442390 -0.162531 0.361276
v 0.963033 0.000000 -0.481516
v -0.963033 0.000000 -0.481516
v -0.963033 0.000000 0.481516
v 0.963033 0.000000 0.481516
v -0.182167 0.034983 -3.036070
v 0.022864 -0.008188 3.683701
v 0.481516 0.000000 0.963033
v 0.481516 0.000000 -0.963033
v -0.481516 0.000000 -0.963033
v -0.481516 0.000000 0.963033
v -0.963033 0.481516 0.963033
v 0.963033 0.481516 -0.963033
v 0.963033 0.481516 0.963033
v -0.963033 0.481516 -0.963033
v 0.963033 0.481516 0.000000
v -0.963033 0.481516 0.000000
v 0.963033 0.481516 -0.481516
v -0.963033 0.481516 -0.481516
v -0.963033 0.481516 0.481516
v 0.963033 0.481516 0.481516
v 0.000000 0.481516 -0.963033
v 0.000000 0.481516 0.963033
v 0.481516 0.481516 0.963033
v 0.481516 0.481516 -0.963033
v -0.481516 0.481516 -0.963033
v -0.481516 0.481516 0.963033
v 0.963033 -0.481516 -0.963033
v 0.963033 -0.481516 0.963033
v -0.963033 -0.481516 -0.963033
v 0.980054 -0.340864 0.038354
v -0.963033 -0.481516 0.000000
v 0.963033 -0.481516 -0.481516
v -0.963033 -0.481516 -0.481516
v -0.963033 -0.481516 0.481516
v 0.963033 -0.481516 0.481516
v 0.000000 -0.481516 -0.963033
v 0.000000 -0.481516 0.963033
v 0.481516 -0.481516 0.963033
v 0.481516 -0.481516 -0.963033
v -0.481516 -0.481516 -0.963033
v -0.481516 -0.481516 0.963033
v -0.963033 -0.481516 0.963033
vt 0.812500 0.687500
vt 0.875000 0.687500
vt 0.875000 0.750000
vt 0.812500 0.750000
vt 0.562500 0.937500
vt 0.625000 0.937500
vt 0.625000 1.000000
vt 0.562500 1.000000
vt 0.562500 0.187500
vt 0.625000 0.187500
vt 0.625000 0.250000
vt 0.562500 0.250000
vt 0.312500 0.687500
vt 0.375000 0.687500
vt 0.375000 0.750000
vt 0.312500 0.750000
vt 0.562500 0.687500
vt 0.625000 0.687500
vt 0.625000 0.750000
vt 0.562500 0.750000
vt 0.562500 0.437500
vt 0.625000 0.437500
vt 0.625000 0.500000
vt 0.562500 0.500000
vt 0.562500 0.562500
vt 0.625000 0.562500
vt 0.625000 0.625000
vt 0.562500 0.625000
vt 0.312500 0.562500
vt 0.375000 0.562500
vt 0.375000 0.625000
vt 0.312500 0.625000
vt 0.562500 0.062500
vt 0.625000 0.062500
vt 0.625000 0.125000
vt 0.562500 0.125000
vt 0.812500 0.562500
vt 0.875000 0.562500
vt 0.875000 0.625000
vt 0.812500 0.625000
vt 0.812500 0.500000
vt 0.875000 0.500000
vt 0.312500 0.500000
vt 0.375000 0.500000
vt 0.562500 0.000000
vt 0.625000 0.000000
vt 0.687500 0.625000
vt 0.750000 0.625000
vt 0.750000 0.687500
vt 0.687500 0.687500
vt 0.187500 0.625000
vt 0.250000 0.625000
vt 0.250000 0.687500
vt 0.187500 0.687500
vt 0.187500 0.500000
vt 0.250000 0.500000
vt 0.250000 0.562500
vt 0.187500 0.562500
vt 0.687500 0.500000
vt 0.750000 0.500000
vt 0.750000 0.562500
vt 0.687500 0.562500
vt 0.562500 0.312500
vt 0.625000 0.312500
vt 0.625000 0.375000
vt 0.562500 0.375000
vt 0.250000 0.750000
vt 0.187500 0.750000
vt 0.562500 0.812500
vt 0.625000 0.812500
vt 0.625000 0.875000
vt 0.562500 0.875000
vt 0.750000 0.750000
vt 0.687500 0.750000
vt 0.125000 0.687500
vt 0.125000 0.750000
vt 0.125000 0.562500
vt 0.125000 0.625000
vt 0.125000 0.500000
vt 0.437500 0.875000
vt 0.500000 0.875000
vt 0.500000 0.937500
vt 0.437500 0.937500
vt 0.437500 0.250000
vt 0.500000 0.250000
vt 0.500000 0.312500
vt 0.437500 0.312500
vt 0.437500 0.375000
vt 0.500000 0.375000
vt 0.500000 0.437500
vt 0.437500 0.437500
vt 0.437500 0.750000
vt 0.500000 0.750000
vt 0.500000 0.812500
vt 0.437500 0.812500
vt 0.437500 0.625000
vt 0.500000 0.625000
vt 0.500000 0.687500
vt 0.437500 0.687500
vt 0.437500 0.000000
vt 0.500000 0.000000
vt 0.500000 0.062500
vt 0.437500 0.062500
vt 0.437500 0.125000
vt 0.500000 0.125000
vt 0.500000 0.187500
vt 0.437500 0.187500
vt 0.437500 0.500000
vt 0.500000 0.500000
vt 0.500000 0.562500
vt 0.437500 0.562500
vt 0.500000 1.000000
vt 0.437500 1.000000
vt 0.375000 0.937500
vt 0.375000 1.000000
vt 0.375000 0.187500
vt 0.375000 0.250000
vt 0.375000 0.437500
vt 0.375000 0.062500
vt 0.375000 0.125000
vt 0.375000 0.000000
vt 0.375000 0.312500
vt 0.375000 0.375000
vt 0.375000 0.812500
vt 0.375000 0.875000
vn 0.0442 0.9980 -0.0442
vn 0.2925 -0.2925 0.9104
vn -0.8866 -0.3270 0.3270
vn 0.0505 -0.9975 0.0505
vn 0.8671 -0.3523 -0.3523
vn -0.3068 -0.3068 -0.9009
vn 0.7185 -0.4918 -0.4918
vn 0.4710 -0.7459 0.4710
vn -0.9977 -0.0484 0.0484
vn -0.3990 0.8256 0.3990
vn 0.0907 0.9917 0.0907
vn 0.0879 -0.9922 -0.0879
vn 0.8231 -0.4016 0.4016
vn -0.9981 -0.0439 -0.0439
vn -0.8176 -0.4071 -0.4071
vn 0.6948 -0.5086 0.5086
vn 0.4204 -0.8040 -0.4204
vn -0.3730 0.8496 -0.3730
vn 0.6764 0.2915 0.6764
vn -0.6652 -0.3391 0.6652
vn 0.4670 -0.7508 -0.4670
vn -0.3856 0.8382 -0.3856
vn 0.6909 0.2126 -0.6909
vn -0.6128 -0.4990 -0.6128
vn 0.0867 0.0867 -0.9924
vn 0.4734 -0.7428 0.4734
vn 0.5202 -0.5202 0.6774
vn -0.2573 0.9315 0.2573
vn 0.0082 0.9999 0.0082
vn -0.3289 -0.3289 0.8853
vn 0.1701 0.9706 0.1701
vn -0.0734 0.9946 0.0734
vn 0.2078 0.9558 -0.2078
vn 0.6680 -0.3281 0.6680
vn -0.5457 -0.6360 -0.5457
vn 0.6301 -0.4537 -0.6301
vn -0.0883 0.0883 -0.9922
vn -0.4317 -0.7920 0.4317
vn -0.1769 -0.9682 0.1769
vn 0.3845 -0.3845 -0.8393
vn -0.5214 -0.6755 0.5214
vn -0.2644 -0.9275 -0.2644
vn -0.4361 -0.7872 -0.4361
vn -0.6788 0.2801 0.6788
vn 0.3369 0.8792 -0.3369
vn -0.6896 0.2213 -0.6896
vn -0.4676 -0.4676 0.7502
vn 0.2563 0.9320 0.2563
vn -0.6853 -0.6853 0.2463
vn -0.4065 0.4065 -0.8183
vn 0.6560 -0.6560 -0.3734
vn 0.4213 0.4213 0.8031
vn 0.6872 -0.6872 0.2354
vn -0.6812 -0.6812 -0.2681
vn 0.2868 -0.7540 0.5910
vn -0.9540 0.2119 0.2119
vn -0.3145 -0.6712 -0.6712
vn 0.7295 0.4837 -0.4837
vn -0.1243 -0.7016 0.7016
vn 0.2373 -0.8088 -0.5381
vn 0.5066 0.5066 -0.6977
vn 0.8693 0.3496 0.3496
vn -0.9170 0.2821 -0.2821
vn -0.1890 0.1890 0.9636
vn -0.6846 0.6846 0.2502
vn -0.4543 -0.4543 -0.7663
vn 0.6613 0.6613 -0.3541
vn 0.4666 -0.4666 0.7514
vn 0.6866 0.6866 0.2393
vn -0.6853 0.6853 -0.2466
vn 0.2388 0.6867 0.6867
vn -0.9348 -0.2512 0.2512
vn -0.3904 0.6510 -0.6510
vn 0.6454 -0.5401 -0.5401
vn -0.2130 0.6909 0.6909
vn 0.1779 0.6958 -0.6958
vn 0.5496 -0.5496 -0.6292
vn 0.8167 -0.4081 0.4081
vn -0.8726 -0.3454 -0.3454
vn -0.2264 -0.2264 0.9474
vn 0.2657 0.2657 0.9267
vn -0.9516 0.2173 0.2173
vn 0.9496 0.2217 -0.2217
vn -0.2401 0.2401 -0.9406
vn 0.8742 0.2970 -0.3841
vn -0.9684 0.1763 0.1763
vn 0.7953 0.4287 0.4287
vn -0.9537 0.2126 -0.2126
vn -0.9276 0.2641 -0.2641
vn 0.9193 0.2114 0.3320
vn -0.2422 0.2422 -0.9395
vn 0.0770 0.0770 0.9940
vn -0.4609 0.4609 0.7584
vn 0.3008 0.3008 -0.9050
vn 0.5367 0.5367 -0.6511
vn -0.0871 0.0871 0.9924
usemtl Material
s off
f 50/1/1 19/2/1 7/3/1 42/4/1
f 82/5/2 42/6/2 7/7/2 67/8/2
f 74/9/3 13/10/3 5/11/3 70/12/3
f 40/13/4 20/14/4 4/15/4 31/16/4
f 76/17/5 18/18/5 3/19/5 69/20/5
f 80/21/6 32/22/6 1/23/6 68/24/6
f 73/25/7 16/26/7 10/27/7 71/28/7
f 39/29/8 14/30/8 12/31/8 38/32/8
f 75/33/9 19/34/9 11/35/9 72/36/9
f 49/37/10 13/38/10 11/39/10 48/40/10
f 47/41/11 5/42/11 13/38/11 49/37/11
f 36/43/12 2/44/12 14/30/12 39/29/12
f 68/24/13 1/23/13 16/26/13 73/25/13
f 72/36/14 11/35/14 13/10/14 74/9/14
f 67/45/15 7/46/15 19/34/15 75/33/15
f 71/28/16 10/27/16 18/18/16 76/17/16
f 38/32/17 12/31/17 20/14/17 40/13/17
f 48/40/18 11/39/18 19/2/18 50/1/18
f 33/47/19 26/48/19 30/49/19 35/50/19
f 43/51/20 25/52/20 29/53/20 45/54/20
f 41/55/21 21/56/21 28/57/21 44/58/21
f 32/59/22 24/60/22 27/61/22 34/62/22
f 34/62/23 27/61/23 26/48/23 33/47/23
f 44/58/24 28/57/24 25/52/24 43/51/24
f 81/63/25 47/64/25 24/65/25 77/66/25
f 45/54/26 29/53/26 23/67/26 46/68/26
f 79/69/27 37/70/27 22/71/27 78/72/27
f 35/50/28 30/49/28 22/73/28 37/74/28
f 18/18/29 35/50/29 37/74/29 3/19/29
f 69/20/30 3/19/30 37/70/30 79/69/30
f 16/26/31 34/62/31 33/47/31 10/27/31
f 1/23/32 32/59/32 34/62/32 16/26/32
f 10/27/33 33/47/33 35/50/33 18/18/33
f 25/52/34 38/32/34 40/13/34 29/53/34
f 21/56/35 36/43/35 39/29/35 28/57/35
f 28/57/36 39/29/36 38/32/36 25/52/36
f 77/66/37 24/65/37 32/22/37 80/21/37
f 29/53/38 40/13/38 31/16/38 23/67/38
f 17/75/39 45/54/39 46/68/39 8/76/39
f 70/12/40 5/11/40 47/64/40 81/63/40
f 15/77/41 44/58/41 43/51/41 9/78/41
f 6/79/42 41/55/42 44/58/42 15/77/42
f 9/78/43 43/51/43 45/54/43 17/75/43
f 26/48/44 48/40/44 50/1/44 30/49/44
f 24/60/45 47/41/45 49/37/45 27/61/45
f 27/61/46 49/37/46 48/40/46 26/48/46
f 78/72/47 22/71/47 42/6/47 82/5/47
f 30/49/48 50/1/48 42/4/48 22/73/48
f 93/80/49 62/81/49 66/82/49 97/83/49
f 85/84/50 54/85/50 65/86/50 96/87/50
f 92/88/51 61/89/51 64/90/51 95/91/51
f 84/92/52 53/93/52 63/94/52 94/95/52
f 94/95/53 63/94/53 62/81/53 93/80/53
f 96/87/54 65/86/54 61/89/54 92/88/54
f 86/96/55 55/97/55 60/98/55 91/99/55
f 98/100/56 52/101/56 59/102/56 90/103/56
f 87/104/57 56/105/57 58/106/57 89/107/57
f 83/108/58 51/109/58 57/110/58 88/111/58
f 90/103/59 59/102/59 56/105/59 87/104/59
f 88/111/60 57/110/60 55/97/60 86/96/60
f 95/91/61 64/90/61 51/109/61 83/108/61
f 91/99/62 60/98/62 53/93/62 84/92/62
f 89/107/63 58/106/63 54/85/63 85/84/63
f 97/83/64 66/82/64 52/112/64 98/113/64
f 62/81/65 78/72/65 82/5/65 66/82/65
f 54/85/66 70/12/66 81/63/66 65/86/66
f 61/89/67 77/66/67 80/21/67 64/90/67
f 53/93/68 69/20/68 79/69/68 63/94/68
f 63/94/69 79/69/69 78/72/69 62/81/69
f 65/86/70 81/63/70 77/66/70 61/89/70
f 55/97/71 71/28/71 76/17/71 60/98/71
f 52/101/72 67/45/72 75/33/72 59/102/72
f 56/105/73 72/36/73 74/9/73 58/106/73
f 51/109/74 68/24/74 73/25/74 57/110/74
f 59/102/75 75/33/75 72/36/75 56/105/75
f 57/110/76 73/25/76 71/28/76 55/97/76
f 64/90/77 80/21/77 68/24/77 51/109/77
f 60/98/78 76/17/78 69/20/78 53/93/78
f 58/106/79 74/9/79 70/12/79 54/85/79
f 66/82/80 82/5/80 67/8/80 52/112/80
f 46/114/81 97/83/81 98/113/81 8/115/81
f 15/116/82 89/107/82 85/84/82 6/117/82
f 20/14/83 91/99/83 84/92/83 4/15/83
f 36/118/84 95/91/84 83/108/84 2/44/84
f 14/30/85 88/111/85 86/96/85 12/31/85
f 17/119/86 90/103/86 87/104/86 9/120/86
f 2/44/87 83/108/87 88/111/87 14/30/87
f 9/120/88 87/104/88 89/107/88 15/116/88
f 8/121/89 98/100/89 90/103/89 17/119/89
f 12/31/90 86/96/90 91/99/90 20/14/90
f 41/122/91 96/87/91 92/88/91 21/123/91
f 31/124/92 94/95/92 93/80/92 23/125/92
f 4/15/93 84/92/93 94/95/93 31/124/93
f 21/123/94 92/88/94 95/91/94 36/118/94
f 6/117/95 85/84/95 96/87/95 41/122/95
f 23/125/96 93/80/96 97/83/96 46/114/96
